<svg width="46" height="46" viewBox="0 0 46 46" fill="none" xmlns="http://www.w3.org/2000/svg">
<path d="M6.92786 12.7259C8.34612 10.2045 9.98566 8.63387 13.4125 6.24878C16.1902 4.31551 21.9809 2.83907 25.0357 3.43816L28.7987 4.17615C31.3729 4.68101 33.6208 5.85349 35.5776 7.54373C37.3259 9.05388 38.05 10.6638 39.6147 12.3909C41.166 14.1032 41.4434 16.4813 42.1391 18.5783C42.663 20.1575 42.6343 23.523 42.3124 25.1642L41.0615 31.5427C39.801 35.3717 37.1052 37.6756 36.1825 38.2339C34.9042 39.0073 32.2007 40.3509 30.5072 41.1919C26.4621 43.2008 22.7505 42.7107 18.4925 41.8757C15.2839 41.2464 12.2708 40.9388 9.69855 38.6966C6.6384 36.029 4.80529 32.7273 3.57739 28.8197C1.77308 23.0779 4.14408 17.6749 6.92786 12.7259Z" fill="#3EABD3"/>
<ellipse cx="17.5" cy="22" rx="1.5" ry="2" fill="#2C2727"/>
<ellipse cx="27.5" cy="22" rx="1.5" ry="2" fill="#2C2727"/>
<path d="M17 29C18.1582 27.4541 21.0251 26.9041 23.5632 27.0134C24.9157 27.0717 26.0825 27.5184 27.3161 27.9908C27.979 28.2446 28.4624 28.586 29 29" stroke="#2C2727" stroke-width="2" stroke-linecap="round"/>
</svg>
