<svg width="46" height="46" viewBox="0 0 46 46" fill="none" xmlns="http://www.w3.org/2000/svg">
<path d="M6.92792 12.7259C8.34618 10.2045 9.98572 8.63387 13.4125 6.24878C16.1902 4.31551 21.981 2.83907 25.0357 3.43816L28.7987 4.17615C31.373 4.68101 33.6209 5.85349 35.5777 7.54373C37.326 9.05388 38.05 10.6638 39.6148 12.3909C41.166 14.1032 41.4435 16.4813 42.1391 18.5783C42.6631 20.1575 42.6343 23.523 42.3125 25.1642L41.0615 31.5427C39.8011 35.3717 37.1053 37.6756 36.1826 38.2339C34.9043 39.0073 32.2007 40.3509 30.5072 41.1919C26.4621 43.2008 22.7505 42.7107 18.4925 41.8757C15.284 41.2464 12.2709 40.9388 9.69861 38.6966C6.63846 36.029 4.80535 32.7273 3.57745 28.8197C1.77314 23.0779 4.14414 17.6749 6.92792 12.7259Z" fill="#FFF563" stroke="#4C4C4C" stroke-width="4" stroke-linecap="round"/>
<path d="M15.0001 25C16.4478 25.7729 20.0315 26.048 23.2041 25.9933C24.8947 25.9642 26.3532 25.7408 27.8952 25.5046C28.7239 25.3777 29.3281 25.207 30.0001 25" stroke="#2C2727" stroke-width="2" stroke-linecap="round"/>
<path d="M15.0001 25C15.0001 28.5 16.0001 31.75 19.5001 33.5C21.0001 34.25 24.4227 34.558 26.5001 33C28.5001 31.5 30.0001 29 30.0001 25" stroke="#2C2727" stroke-width="2" stroke-linecap="round"/>
<path d="M28.0001 20.4445C28.9122 19.9453 29.6835 19.5561 30.5624 19.5937" stroke="#2C2727" stroke-width="2" stroke-linecap="round"/>
<path d="M17.5623 20.4445C16.6502 19.9453 15.8788 19.5561 14.9999 19.5937" stroke="#2C2727" stroke-width="2" stroke-linecap="round"/>
</svg>
