<svg width="46" height="46" viewBox="0 0 46 46" fill="none" xmlns="http://www.w3.org/2000/svg">
<path d="M6.92786 12.7259C8.34612 10.2045 9.98566 8.63387 13.4125 6.24878C16.1902 4.31551 21.9809 2.83907 25.0357 3.43816L28.7987 4.17615C31.3729 4.68101 33.6208 5.85349 35.5776 7.54373C37.3259 9.05388 38.05 10.6638 39.6147 12.3909C41.166 14.1032 41.4434 16.4813 42.1391 18.5783C42.663 20.1575 42.6343 23.523 42.3124 25.1642L41.0615 31.5427C39.801 35.3717 37.1052 37.6756 36.1825 38.2339C34.9042 39.0073 32.2007 40.3509 30.5072 41.1919C26.4621 43.2008 22.7505 42.7107 18.4925 41.8757C15.2839 41.2464 12.2708 40.9388 9.69855 38.6966C6.6384 36.029 4.80529 32.7273 3.57739 28.8197C1.77308 23.0779 4.14408 17.6749 6.92786 12.7259Z" fill="#FFF563" stroke="#A0A0A0" stroke-width="4" stroke-linecap="round"/>
<path d="M15 25C16.4478 25.7729 20.0314 26.048 23.204 25.9933C24.8947 25.9642 26.3531 25.7408 27.8951 25.5046C28.7238 25.3777 29.328 25.207 30 25" stroke="#2C2727" stroke-width="2" stroke-linecap="round"/>
<path d="M15 25C15 28.5 16 31.75 19.5 33.5C21 34.25 24.4226 34.558 26.5 33C28.5 31.5 30 29 30 25" stroke="#2C2727" stroke-width="2" stroke-linecap="round"/>
<path d="M28 20.4443C28.9121 19.9452 29.6835 19.556 30.5624 19.5935" stroke="#2C2727" stroke-width="2" stroke-linecap="round"/>
<path d="M17.5623 20.4443C16.6501 19.9452 15.8788 19.556 14.9999 19.5935" stroke="#2C2727" stroke-width="2" stroke-linecap="round"/>
</svg>
