<svg width="69" height="65" viewBox="0 0 69 65" fill="none" xmlns="http://www.w3.org/2000/svg">
<g id="Group 37156">
<g id="Group 37153">
<g id="Union">
<path fill-rule="evenodd" clip-rule="evenodd" d="M1.1296 39.2123C1.1296 37.6253 1.32609 36.0734 1.70142 34.5703C1.70913 34.5394 1.70961 34.5079 1.70247 34.4768C-0.300539 25.7738 1.11837 11.6939 17.5243 1.08808C17.6989 0.975225 17.9184 1.1697 17.8228 1.35428C15.6908 5.47049 13.7392 12.6662 17.7234 17.5457C17.7787 17.6134 17.8727 17.6367 17.9535 17.6033C22.4722 15.7328 27.6443 14.671 33.1399 14.671C40.8889 14.671 47.9949 16.782 53.5326 20.2948C53.5943 20.3339 53.673 20.3362 53.7367 20.3004C59.2675 17.1929 60.0279 9.73081 59.5072 5.10435C59.4839 4.89778 59.7571 4.79286 59.8798 4.96069C69.4302 18.0282 68.5212 29.6428 65.0944 37.457C65.0809 37.4879 65.0755 37.5214 65.0784 37.5551C65.126 38.1028 65.1502 38.6554 65.1502 39.2123C65.1502 52.766 50.8187 63.7535 33.1399 63.7535C15.4611 63.7535 1.1296 52.766 1.1296 39.2123Z" fill="#EF736E" fill-opacity="0.5"/>
<path d="M65.0944 37.457L66.0103 37.8586L65.0944 37.457ZM65.0784 37.5551L64.0822 37.6418L65.0784 37.5551ZM59.5072 5.10435L58.5134 5.2162L59.5072 5.10435ZM59.8798 4.96069L59.0724 5.55075L59.8798 4.96069ZM17.7234 17.5457L16.9488 18.1781L17.7234 17.5457ZM17.9535 17.6033L18.336 18.5273L17.9535 17.6033ZM17.5243 1.08808L16.9814 0.248282L17.5243 1.08808ZM17.8228 1.35428L16.9349 0.894357L17.8228 1.35428ZM53.5326 20.2948L54.0683 19.4504L53.5326 20.2948ZM53.7367 20.3004L54.2265 21.1722L53.7367 20.3004ZM1.70142 34.5703L0.731213 34.3281L1.70142 34.5703ZM1.70247 34.4768L2.67699 34.2526L1.70247 34.4768ZM0.731213 34.3281C0.33644 35.909 0.129602 37.5422 0.129602 39.2123H2.1296C2.1296 37.7084 2.31573 36.2379 2.67163 34.8126L0.731213 34.3281ZM16.9814 0.248282C0.172787 11.1144 -1.35561 25.6481 0.727945 34.7011L2.67699 34.2526C0.754535 25.8995 2.06395 12.2734 18.0672 1.92788L16.9814 0.248282ZM18.498 16.9132C16.7227 14.7389 16.2338 12.0101 16.4757 9.25111C16.7181 6.48784 17.6892 3.78657 18.7108 1.8142L16.9349 0.894357C15.8245 3.03819 14.7538 5.99287 14.4834 9.07638C14.2126 12.1642 14.74 15.4729 16.9488 18.1781L18.498 16.9132ZM33.1399 13.671C27.5165 13.671 22.2141 14.7573 17.571 16.6793L18.336 18.5273C22.7303 16.7082 27.7721 15.671 33.1399 15.671V13.671ZM54.0683 19.4504C48.3606 15.8298 41.0667 13.671 33.1399 13.671V15.671C40.7111 15.671 47.6291 17.7342 52.997 21.1392L54.0683 19.4504ZM54.2265 21.1722C57.2929 19.4494 58.9896 16.5414 59.8522 13.5489C60.7134 10.5611 60.7721 7.40193 60.5009 4.9925L58.5134 5.2162C58.763 7.43322 58.7019 10.3183 57.9304 12.995C57.1602 15.6671 55.7113 18.044 53.2469 19.4286L54.2265 21.1722ZM59.0724 5.55075C68.4021 18.3163 67.4695 29.5509 64.1786 37.0554L66.0103 37.8586C69.5728 29.7347 70.4582 17.7401 60.6871 4.37063L59.0724 5.55075ZM66.1502 39.2123C66.1502 38.6264 66.1248 38.0449 66.0747 37.4685L64.0822 37.6418C64.1273 38.1607 64.1502 38.6843 64.1502 39.2123H66.1502ZM33.1399 64.7535C42.18 64.7535 50.401 61.9454 56.3831 57.3592C62.3661 52.7721 66.1502 46.3651 66.1502 39.2123H64.1502C64.1502 45.6132 60.7686 51.4768 55.1662 55.7719C49.5628 60.0679 41.7787 62.7535 33.1399 62.7535V64.7535ZM0.129602 39.2123C0.129602 46.3651 3.91372 52.7721 9.89678 57.3592C15.8788 61.9454 24.0999 64.7535 33.1399 64.7535V62.7535C24.5012 62.7535 16.717 60.0679 11.1136 55.7719C5.51124 51.4768 2.1296 45.6132 2.1296 39.2123H0.129602ZM64.1786 37.0554C64.0967 37.2423 64.065 37.4439 64.0822 37.6418L66.0747 37.4685C66.086 37.599 66.065 37.7336 66.0103 37.8586L64.1786 37.0554ZM60.5009 4.9925C60.5482 5.41287 60.2708 5.72037 59.9979 5.82538C59.7263 5.92992 59.3192 5.88841 59.0724 5.55075L60.6871 4.37063C59.9722 3.39247 58.373 3.96887 58.5134 5.2162L60.5009 4.9925ZM16.9488 18.1781C17.2853 18.5903 17.8505 18.7282 18.336 18.5273L17.571 16.6793C17.8949 16.5453 18.2721 16.6365 18.498 16.9132L16.9488 18.1781ZM18.0672 1.92788C17.718 2.15363 17.326 2.04866 17.1104 1.85693C16.8924 1.66305 16.7381 1.27436 16.9349 0.894357L18.7108 1.8142C19.3033 0.670225 17.971 -0.391442 16.9814 0.248282L18.0672 1.92788ZM52.997 21.1392C53.3679 21.3745 53.8405 21.3891 54.2265 21.1722L53.2469 19.4286C53.5056 19.2832 53.8207 19.2933 54.0683 19.4504L52.997 21.1392ZM2.67163 34.8126C2.71658 34.6326 2.72038 34.4411 2.67699 34.2526L0.727945 34.7011C0.69883 34.5746 0.701685 34.4463 0.731213 34.3281L2.67163 34.8126Z" fill="black" fill-opacity="0.5"/>
</g>
</g>
<circle id="Ellipse 37" cx="47.1248" cy="35.0948" r="5.33505" fill="#F44F44" fill-opacity="0.5"/>
<circle id="Ellipse 38" cx="17.2484" cy="35.0948" r="5.33505" fill="#F44F44" fill-opacity="0.5"/>
<g id="Group 37152">
<circle id="Ellipse 35" cx="22.4698" cy="28.9836" r="2.13402" fill="black" fill-opacity="0.5"/>
<circle id="Ellipse 36" cx="41.6761" cy="28.9836" r="2.13402" fill="black" fill-opacity="0.5"/>
</g>
<path id="Vector 92" d="M27.2124 35.8838C29.2072 36.0263 31.284 36.247 33.2569 36.588C34.1981 36.7507 35.228 36.756 36.1325 37.0575" stroke="black" stroke-opacity="0.5" stroke-width="2" stroke-linecap="round"/>
</g>
</svg>
