<svg width="46" height="46" viewBox="0 0 46 46" fill="none" xmlns="http://www.w3.org/2000/svg">
<path d="M6.92792 12.7259C8.34618 10.2045 9.98572 8.63387 13.4125 6.24878C16.1902 4.31551 21.981 2.83907 25.0357 3.43816L28.7987 4.17615C31.373 4.68101 33.6209 5.85349 35.5777 7.54373C37.326 9.05388 38.05 10.6638 39.6148 12.3909C41.166 14.1032 41.4435 16.4813 42.1391 18.5783C42.6631 20.1575 42.6343 23.523 42.3125 25.1642L41.0615 31.5427C39.8011 35.3717 37.1053 37.6756 36.1826 38.2339C34.9043 39.0073 32.2007 40.3509 30.5072 41.1919C26.4621 43.2008 22.7505 42.7107 18.4925 41.8757C15.284 41.2464 12.2709 40.9388 9.69861 38.6966C6.63846 36.029 4.80535 32.7273 3.57745 28.8197C1.77314 23.0779 4.14414 17.6749 6.92792 12.7259Z" fill="#9795DC" stroke="#4C4C4C" stroke-width="4" stroke-linecap="round"/>
<path d="M25.7891 24.4319C26.7012 24.931 27.4726 25.3202 28.3515 25.2827" stroke="#2C2727" stroke-width="1.5" stroke-linecap="round"/>
<ellipse cx="17.5001" cy="21" rx="1.5" ry="2" fill="#2C2727"/>
<ellipse cx="27.5001" cy="21" rx="1.5" ry="2" fill="#2C2727"/>
<path d="M19.0001 29C19.6757 28.2271 21.5195 27.9453 23.0001 28C23.789 28.0291 24.2982 28.2592 25.0178 28.4954C25.4045 28.6223 25.6865 28.793 26.0001 29" stroke="#2C2727" stroke-width="2" stroke-linecap="round"/>
</svg>
