<svg width="104" height="104" viewBox="0 0 104 104" fill="none" xmlns="http://www.w3.org/2000/svg">
<path d="M19.0576 48.4342C20.2095 56.349 24.1725 63.5846 30.2217 68.8171C36.2709 74.0496 44.0018 76.9293 52 76.9293M52 76.9293C59.9982 76.9293 67.7291 74.0496 73.7783 68.8171C79.8275 63.5846 83.7905 56.349 84.9424 48.4342M52 76.9293V93.5999M52.0048 10.3999C48.222 10.3999 44.5942 11.9026 41.9194 14.5774C39.2446 17.2522 37.7419 20.88 37.7419 24.6628V43.6799C37.7419 47.4626 39.2446 51.0905 41.9194 53.7653C44.5942 56.4401 48.222 57.9428 52.0048 57.9428C55.7875 57.9428 59.4153 56.4401 62.0901 53.7653C64.7649 51.0905 66.2676 47.4626 66.2676 43.6799V24.6628C66.2676 20.88 64.7649 17.2522 62.0901 14.5774C59.4153 11.9026 55.7875 10.3999 52.0048 10.3999Z" stroke="#EF736E" stroke-width="7" stroke-linecap="round" stroke-linejoin="round"/>
</svg>
