<svg width="219" height="129" viewBox="0 0 219 129" fill="none" xmlns="http://www.w3.org/2000/svg">
<path d="M2.25718 104.094C2.71908 103.274 3.25308 102.763 4.36924 101.986C5.27396 101.357 7.16014 100.877 8.15518 101.072L9.38092 101.312C10.2195 101.477 10.9517 101.858 11.5891 102.408C12.1586 102.9 12.3945 103.424 12.9043 103.986C13.4096 104.544 13.5 105.318 13.7267 106C13.8974 106.515 13.8881 107.61 13.7833 108.144L13.376 110.22C12.9656 111.467 12.0875 112.217 11.787 112.398C11.3707 112.65 10.4901 113.087 9.93845 113.361C8.6209 114.015 7.4119 113.855 6.02493 113.583C4.97978 113.378 3.99832 113.278 3.16039 112.548C2.16353 111.68 1.56634 110.605 1.16627 109.333C0.578396 107.464 1.35055 105.705 2.25718 104.094Z" fill="#EF736E"/>
<path d="M38.3387 104.094C38.8006 103.274 39.3346 102.763 40.4508 101.986C41.3555 101.357 43.2417 100.877 44.2367 101.072L45.4625 101.312C46.301 101.477 47.0332 101.858 47.6707 102.408C48.2402 102.9 48.4761 103.424 48.9858 103.986C49.4912 104.544 49.5816 105.318 49.8082 106C49.9789 106.515 49.9697 107.61 49.8649 108.144L49.4576 110.22C49.0471 111.467 48.1691 112.217 47.8686 112.398C47.4522 112.65 46.5716 113.087 46.02 113.361C44.7024 114.015 43.4934 113.855 42.1065 113.583C41.0613 113.378 40.0799 113.278 39.2419 112.548C38.2451 111.68 37.6479 110.605 37.2478 109.333C36.6599 107.464 37.4321 105.705 38.3387 104.094Z" fill="#EF736E" fill-opacity="0.5"/>
<path d="M74.4203 104.094C74.8822 103.274 75.4162 102.763 76.5323 101.986C77.437 101.357 79.3232 100.877 80.3183 101.072L81.544 101.312C82.3825 101.477 83.1148 101.858 83.7522 102.408C84.3217 102.9 84.5576 103.424 85.0673 103.986C85.5727 104.544 85.6631 105.318 85.8898 106C86.0605 106.515 86.0512 107.61 85.9464 108.144L85.5391 110.22C85.1287 111.467 84.2506 112.217 83.9501 112.398C83.5337 112.65 82.6531 113.087 82.1015 113.361C80.784 114.015 79.575 113.855 78.188 113.583C77.1429 113.378 76.1614 113.278 75.3235 112.548C74.3266 111.68 73.7294 110.605 73.3294 109.333C72.7415 107.464 73.5136 105.705 74.4203 104.094Z" fill="#EF736E" fill-opacity="0.5"/>
<ellipse cx="148.595" cy="121.038" rx="40.5151" ry="3.96352" fill="#EF736E" fill-opacity="0.3"/>
<path d="M195.604 67.539C183.151 65.465 176.002 55.729 173.984 51.1203C173.119 54.5768 171.908 62.6998 173.984 67.539C176.578 73.588 189.55 78.7728 193.874 78.7728C198.198 78.7728 200.793 70.1314 195.604 67.539Z" fill="#EF736E"/>
<path d="M123.826 39.0222C127.977 49.392 135.356 57.1693 138.527 60.6258L144.581 49.392C128.15 31.245 130.744 12.2338 128.15 7.04899C122.961 2.72827 118.637 5.3207 117.772 8.77727C116.907 12.2338 118.637 26.0601 123.826 39.0222Z" fill="#EF736E"/>
<path d="M126.42 106.425L135.068 88.2783L139.392 77.0444L154.959 83.0934C150.635 94.3273 141.468 116.968 139.392 117.659C136.798 118.523 114.313 110.746 114.313 108.154C115.697 104.697 122.961 105.561 126.42 106.425Z" fill="#EF736E"/>
<path d="M177.854 114.294L175.805 94.2989L175.506 82.2665L158.811 82.7424C159.11 94.7749 160.138 119.177 161.861 120.524C164.014 122.208 187.807 122.425 188.678 119.983C188.536 116.263 181.403 114.64 177.854 114.294Z" fill="#EF736E"/>
<path d="M126.42 91.7348C125.036 90.3521 137.951 58.8973 144.581 43.3428H173.984C176.578 60.9137 181.248 96.0555 179.173 96.0555C176.578 96.0555 168.795 91.7348 166.201 91.7348C163.606 91.7348 161.877 98.6479 159.282 98.6479C156.688 98.6479 154.094 91.7348 151.499 91.7348C148.905 91.7348 144.581 96.9196 141.986 96.0555C139.392 95.1913 139.392 87.4141 137.663 87.4141C135.933 87.4141 128.15 93.4631 126.42 91.7348Z" fill="#FFE76E"/>
<ellipse cx="138.527" cy="75.3162" rx="1.72912" ry="1.72829" fill="#65B798"/>
<ellipse cx="147.175" cy="83.9578" rx="1.72912" ry="1.72829" fill="#65B798"/>
<ellipse cx="155.823" cy="77.0447" rx="1.72912" ry="1.72829" fill="#65B798"/>
<ellipse cx="167.93" cy="83.9578" rx="1.72912" ry="1.72829" fill="#65B798"/>
<ellipse cx="173.119" cy="75.3162" rx="1.72912" ry="1.72829" fill="#65B798"/>
<ellipse cx="145.445" cy="58.0335" rx="1.72912" ry="1.72829" fill="#65B798"/>
<ellipse cx="147.175" cy="68.4031" rx="1.72912" ry="1.72829" fill="#65B798"/>
<ellipse cx="157.552" cy="61.49" rx="1.72912" ry="1.72829" fill="#65B798"/>
<ellipse cx="166.2" cy="68.4031" rx="1.72912" ry="1.72829" fill="#65B798"/>
<ellipse cx="171.389" cy="58.0335" rx="1.72912" ry="1.72829" fill="#65B798"/>
<ellipse cx="159.282" cy="34.7015" rx="25.9439" ry="19.8753" fill="#EF736E"/>
<path d="M150.634 17.4187C142.332 13.9621 144.869 5.03267 147.175 1C130.571 11.3697 132.185 26.0601 135.068 32.1091L150.634 17.4187Z" fill="#EF736E"/>
<path d="M171.46 18.0605C180.45 17.8003 181.278 8.5549 180.568 3.96476C192.361 19.5834 185.595 32.7247 180.737 37.3431L171.46 18.0605Z" fill="#EF736E"/>
<path d="M200.058 74.4521C202.826 69.6129 197.464 66.6748 194.87 66.6748C189.681 66.6748 186.444 77.4065 190.546 78.7728C193.14 79.6369 196.599 80.5011 200.058 74.4521Z" fill="#EF736E"/>
<path d="M195.604 67.539C183.151 65.465 176.002 55.729 173.984 51.1203C173.119 54.5769 171.908 62.6998 173.984 67.539C176.578 73.588 189.55 78.7729 193.874 78.7729C198.198 78.7729 200.793 70.1314 195.604 67.539Z" fill="#DE615C"/>
<path d="M117.772 8.77775C116.907 12.2343 118.637 26.0606 123.826 39.0227C127.977 49.3924 135.356 57.1697 138.527 60.6263L144.581 49.3924C128.15 31.2454 130.744 12.2343 128.15 7.04946M120.366 5.32117C120.366 7.33751 120.539 11.543 121.231 12.2343M123.826 4.45703C123.826 6.47336 123.999 10.6789 124.69 11.3702M173.984 51.1207C176.002 55.7295 183.151 65.4655 195.604 67.5395C200.793 70.1319 198.198 78.7733 193.874 78.7733C189.55 78.7733 176.578 73.5885 173.984 67.5395C171.908 62.7003 173.119 54.5773 173.984 51.1207Z" stroke="black" stroke-width="2"/>
<path d="M126.42 106.426L135.068 88.2788L139.392 77.0449L154.958 83.0939C150.634 94.3278 141.468 116.968 139.392 117.66C136.798 118.524 114.313 110.746 114.313 108.154C115.697 104.697 122.961 105.562 126.42 106.426Z" fill="#EF736E" stroke="black" stroke-width="2"/>
<path d="M116.043 109.883C116.619 108.73 118.637 106.772 122.096 108.154" stroke="black" stroke-width="2"/>
<path d="M177.854 114.294L175.805 94.2989L175.506 82.2665L158.811 82.7424C159.11 94.7749 160.138 119.177 161.861 120.524C164.014 122.208 187.807 122.425 188.678 119.983C188.536 116.263 181.403 114.64 177.854 114.294Z" fill="#EF736E" stroke="black" stroke-width="2"/>
<path d="M186.005 121.301C185.63 120.069 183.97 117.8 180.327 118.583" stroke="black" stroke-width="2"/>
<path d="M177.526 81.7371L200.058 39.659C200.431 38.9626 201.316 38.7283 201.984 39.1492L203.221 39.9277L205.695 41.4848L208.169 43.0419L209.406 43.8204C210.105 44.2603 210.349 45.1628 209.967 45.8952L188.047 87.9765C187.508 89.0114 186.201 89.3669 185.212 88.7478L178.228 84.3765C177.336 83.8183 177.03 82.6646 177.526 81.7371Z" fill="#FFA51E" stroke="black" stroke-width="2"/>
<path d="M212.014 31.5398L210.126 44.0553L201.757 38.6489L212.014 31.5398Z" fill="#FFDF7E" stroke="black" stroke-width="2"/>
<path d="M210.798 32.0893C211.517 31.6252 212.448 32.2182 212.332 33.0652L211.856 36.5091C211.757 37.2308 210.943 37.6073 210.328 37.2161L207.881 35.6594C207.267 35.2682 207.264 34.372 207.876 33.9765L210.798 32.0893Z" fill="black"/>
<path d="M126.42 91.7353C125.036 90.3526 137.951 58.8978 144.581 43.3433H173.984C176.578 60.9142 181.248 96.056 179.173 96.056C176.578 96.056 168.795 91.7353 166.201 91.7353C163.606 91.7353 161.877 98.6484 159.282 98.6484C156.688 98.6484 154.094 91.7353 151.499 91.7353C148.905 91.7353 144.581 96.9201 141.986 96.056C139.392 95.1918 139.392 87.4145 137.663 87.4145C135.933 87.4145 128.15 93.4635 126.42 91.7353Z" fill="#FFE76E" stroke="black" stroke-width="2"/>
<ellipse cx="138.527" cy="75.3162" rx="1.72912" ry="1.72829" fill="#65B798"/>
<ellipse cx="147.175" cy="83.9578" rx="1.72912" ry="1.72829" fill="#65B798"/>
<ellipse cx="155.823" cy="77.0447" rx="1.72912" ry="1.72829" fill="#65B798"/>
<ellipse cx="167.93" cy="83.9578" rx="1.72912" ry="1.72829" fill="#65B798"/>
<ellipse cx="173.119" cy="75.3162" rx="1.72912" ry="1.72829" fill="#65B798"/>
<ellipse cx="145.445" cy="58.0335" rx="1.72912" ry="1.72829" fill="#65B798"/>
<ellipse cx="147.175" cy="68.4031" rx="1.72912" ry="1.72829" fill="#65B798"/>
<ellipse cx="157.552" cy="61.49" rx="1.72912" ry="1.72829" fill="#65B798"/>
<ellipse cx="166.2" cy="68.4031" rx="1.72912" ry="1.72829" fill="#65B798"/>
<ellipse cx="171.389" cy="58.0335" rx="1.72912" ry="1.72829" fill="#65B798"/>
<path fill-rule="evenodd" clip-rule="evenodd" d="M133.339 34.7018C133.339 33.0057 133.616 31.3592 134.138 29.7874C134.151 29.748 134.152 29.7066 134.14 29.6667C132.089 22.8083 132.49 10.5529 146.499 1.43148C146.673 1.31806 146.893 1.51377 146.799 1.69918C144.817 5.60808 143.112 12.7377 148.774 16.4438C148.824 16.477 148.889 16.4856 148.947 16.4664C152.113 15.4115 155.609 14.8265 159.282 14.8265C164.353 14.8265 169.083 15.9408 173.08 17.8672C173.118 17.8854 173.161 17.8912 173.203 17.8837C180.128 16.6273 181.128 9.18459 180.669 4.75171C180.647 4.54497 180.921 4.4389 181.043 4.6071C188.933 15.4755 187.892 25.0931 184.911 31.3955C184.892 31.4354 184.887 31.4798 184.896 31.523C185.113 32.558 185.226 33.6198 185.226 34.7018C185.226 45.6786 173.611 54.5771 159.282 54.5771C144.954 54.5771 133.339 45.6786 133.339 34.7018Z" fill="#EF736E"/>
<path d="M184.911 31.3955L185.815 31.823L184.911 31.3955ZM184.896 31.523L185.875 31.3176L184.896 31.523ZM180.669 4.75171L181.663 4.64874L180.669 4.75171ZM181.043 4.6071L181.852 4.01967L181.043 4.6071ZM148.774 16.4438L148.226 17.2805L148.774 16.4438ZM148.947 16.4664L149.263 17.4152L148.947 16.4664ZM146.499 1.43148L147.044 2.2695L146.499 1.43148ZM146.799 1.69918L147.691 2.15133L146.799 1.69918ZM173.08 17.8672L172.646 18.768L173.08 17.8672ZM173.203 17.8837L173.024 16.8998L173.203 17.8837ZM134.138 29.7874L135.087 30.1025L134.138 29.7874ZM134.14 29.6667L133.182 29.9532L134.14 29.6667ZM133.189 29.4723C132.634 31.1427 132.339 32.8954 132.339 34.7018H134.339C134.339 33.1159 134.598 31.5757 135.087 30.1025L133.189 29.4723ZM145.953 0.593472C131.51 9.99754 131.027 22.746 133.182 29.9532L135.098 29.3802C133.151 22.8706 133.47 11.1083 147.044 2.2695L145.953 0.593472ZM149.321 15.607C146.83 13.9765 145.95 11.6172 145.92 9.13525C145.889 6.61191 146.747 4.01398 147.691 2.15133L145.907 1.24702C144.87 3.29328 143.884 6.21461 143.92 9.15981C143.957 12.1464 145.055 15.2049 148.226 17.2805L149.321 15.607ZM159.282 13.8265C155.503 13.8265 151.901 14.4282 148.63 15.5177L149.263 17.4152C152.326 16.3947 155.714 15.8265 159.282 15.8265V13.8265ZM173.514 16.9664C169.377 14.9724 164.498 13.8265 159.282 13.8265V15.8265C164.208 15.8265 168.79 16.9093 172.646 18.768L173.514 16.9664ZM173.381 18.8677C177.247 18.1663 179.47 15.7071 180.63 12.8894C181.771 10.1163 181.904 6.96828 181.663 4.64874L179.674 4.85468C179.893 6.96803 179.755 9.75781 178.78 12.1284C177.823 14.4543 176.084 16.3447 173.024 16.8998L173.381 18.8677ZM180.234 5.19454C187.895 15.7481 186.842 24.9738 184.007 30.9679L185.815 31.823C188.942 25.2125 189.97 15.203 181.852 4.01967L180.234 5.19454ZM186.226 34.7018C186.226 33.55 186.106 32.4194 185.875 31.3176L183.918 31.7283C184.121 32.6967 184.226 33.6897 184.226 34.7018H186.226ZM159.282 55.5771C166.647 55.5771 173.351 53.2914 178.236 49.5496C183.121 45.8071 186.226 40.5665 186.226 34.7018H184.226C184.226 39.814 181.524 44.511 177.019 47.9619C172.514 51.4136 166.246 53.5771 159.282 53.5771V55.5771ZM132.339 34.7018C132.339 40.5665 135.444 45.8071 140.329 49.5496C145.213 53.2914 151.918 55.5771 159.282 55.5771V53.5771C152.319 53.5771 146.051 51.4136 141.545 47.9619C137.041 44.511 134.339 39.814 134.339 34.7018H132.339ZM184.007 30.9679C183.893 31.2084 183.864 31.4754 183.918 31.7283L185.875 31.3176C185.91 31.4841 185.891 31.6623 185.815 31.823L184.007 30.9679ZM181.663 4.64874C181.707 5.06607 181.431 5.36779 181.163 5.47149C180.894 5.57556 180.483 5.53731 180.234 5.19454L181.852 4.01967C181.119 3.00955 179.549 3.64863 179.674 4.85468L181.663 4.64874ZM148.226 17.2805C148.53 17.4794 148.912 17.5318 149.263 17.4152L148.63 15.5177C148.866 15.4394 149.119 15.4745 149.321 15.607L148.226 17.2805ZM147.044 2.2695C146.692 2.49924 146.298 2.3899 146.084 2.19996C145.87 2.0093 145.715 1.62638 145.907 1.24702L147.691 2.15133C148.256 1.03684 146.968 -0.0675961 145.953 0.593472L147.044 2.2695ZM172.646 18.768C172.876 18.8792 173.135 18.9124 173.381 18.8677L173.024 16.8998C173.188 16.8701 173.359 16.8917 173.514 16.9664L172.646 18.768ZM135.087 30.1025C135.163 29.8742 135.17 29.6227 135.098 29.3802L133.182 29.9532C133.133 29.7904 133.139 29.6218 133.189 29.4723L135.087 30.1025Z" fill="black"/>
<path d="M197.466 77.2075C194.472 79.586 190.505 79.5788 188.606 77.1914C187.694 75.1747 189.394 72.2586 191.66 68.5782C193.927 65.7472 197.55 66.1909 199.45 68.5782C201.349 70.9656 200.461 74.8291 197.466 77.2075Z" fill="#EF736E"/>
<path d="M194.869 66.6748C197.464 66.6748 202.826 69.6129 200.058 74.4521C196.599 80.5011 190.415 80.5011 188.685 77.0445M189.55 73.5879C190.502 74.164 192.898 75.3162 194.869 75.3162M191.28 70.1314C192.433 70.7075 195.085 71.8597 196.468 71.8597" stroke="black" stroke-width="2"/>
<ellipse cx="170.525" cy="36.4296" rx="4.32398" ry="4.32071" fill="#F44F44"/>
<ellipse cx="146.31" cy="36.4296" rx="4.32398" ry="4.32071" fill="#F44F44"/>
<ellipse cx="150.634" cy="30.3811" rx="1.72912" ry="1.72829" fill="black"/>
<ellipse cx="166.2" cy="30.3811" rx="1.72912" ry="1.72829" fill="black"/>
<path d="M165.799 38.6382C165.793 38.7149 165.706 38.756 165.642 38.7122L163.464 37.2059C163.401 37.1621 163.409 37.0662 163.478 37.0333L165.873 35.9015C165.942 35.8686 166.021 35.9234 166.015 36.0001L165.799 38.6382Z" fill="#D9D9D9"/>
<path d="M150.635 36.2218C153.229 38.1582 164.471 38.1582 167.931 34.7017" stroke="black" stroke-width="2" stroke-linecap="round"/>
</svg>
