<svg width="66" height="58" viewBox="0 0 66 58" fill="none" xmlns="http://www.w3.org/2000/svg">
<path d="M9.10146 12.4112C9.10146 8.75553 12.065 5.79199 15.7207 5.79199H45.5073C49.163 5.79199 52.1265 8.75553 52.1265 12.4112V45.5074C52.1265 49.1631 49.163 52.1267 45.5073 52.1267H15.7207C12.065 52.1267 9.10146 49.1631 9.10146 45.5074V12.4112Z" fill="white"/>
<path d="M20.6851 5.79199V52.1267M42.1977 25.6497H30.614M42.1977 15.7209H30.614M12.4111 15.7209H5.79184M12.4111 25.6497H5.79184M12.4111 35.5786H5.79184M15.7207 52.1267H45.5073C49.163 52.1267 52.1265 49.1631 52.1265 45.5074V12.4112C52.1265 8.75553 49.163 5.79199 45.5073 5.79199H15.7207C12.065 5.79199 9.10146 8.75553 9.10146 12.4112V45.5074C9.10146 49.1631 12.065 52.1267 15.7207 52.1267Z" stroke="#EF736E" stroke-width="3" stroke-linecap="round"/>
<path d="M59.5154 26.9757L49.8873 36.9401L48.4225 41.8227L53.3051 40.3579L63.2695 30.7299C64.3061 29.6932 64.3061 28.0124 63.2695 26.9757C62.2328 25.9391 60.552 25.9391 59.5154 26.9757Z" fill="white"/>
<path d="M50.3755 36.9401L53.7934 39.8697M49.8873 36.9401L59.5154 26.9757C60.552 25.9391 62.2328 25.9391 63.2695 26.9757C64.3061 28.0124 64.3061 29.6932 63.2695 30.7299L53.3051 40.3579L48.4225 41.8227L49.8873 36.9401Z" stroke="#EF736E" stroke-width="3" stroke-linecap="round" stroke-linejoin="round"/>
</svg>
