<svg width="66" height="66" viewBox="0 0 66 66" fill="none" xmlns="http://www.w3.org/2000/svg">
<path d="M18.5625 57.75C14.0062 57.75 10.3125 53.9508 10.3125 49.2643V20.9785C10.3125 16.292 14.0062 12.4928 18.5625 12.4928H46.0625C50.6188 12.4928 54.3125 16.292 54.3125 20.9785L54.3125 49.2643C54.3125 53.9508 50.6188 57.75 46.0625 57.75H18.5625Z" fill="white"/>
<path d="M21.3125 47.3555V47.1428M33.6875 47.3555V47.1428M33.6875 35.8286V35.6159M44.6875 35.8286V35.6159M13.0625 24.5142H51.5625M18.0387 8.25V12.4934M46.0625 8.25V12.4928M46.0625 12.4928H18.5625C14.0062 12.4928 10.3125 16.292 10.3125 20.9785V49.2643C10.3125 53.9508 14.0062 57.75 18.5625 57.75H46.0625C50.6188 57.75 54.3125 53.9508 54.3125 49.2643L54.3125 20.9785C54.3125 16.292 50.6188 12.4928 46.0625 12.4928Z" stroke="#EF736E" stroke-width="3" stroke-linecap="round" stroke-linejoin="round"/>
</svg>
